<?xml version="1.0" encoding="UTF-8" standalone="no"?>
<svg
   id="RZ"
   viewBox="0 0 60.399702 68.708717"
   version="1.1"
   width="60.399704"
   height="68.708717"
   xmlns="http://www.w3.org/2000/svg"
   xmlns:svg="http://www.w3.org/2000/svg">
  <defs
     id="defs1">
    <style
       id="style1">.cls-1{fill:#fff;}</style>
  </defs>
  <path
     class="cls-1"
     d="m 18.787035,34.41449 c 0,-5.09271 -1.93969,-9.5553 -4.84887,-12.04724 -2.90943,2.49194 -4.8491301,6.95453 -4.8491301,12.04724 0,5.09271 1.9397001,9.55536 4.8491301,12.04724 2.90918,-2.49188 4.84887,-6.95453 4.84887,-12.04724 z"
     id="path1" />
  <path
     class="cls-1"
     d="m 6.4550649,44.01673 a 10.37632,10.37632 0 0 0 -2.4573896,-1.38959 7.42894,7.42894 0 0 0 -2.68128,-0.43256 8.47167,8.47167 0 0 0 -0.96722003,0.084 q -0.16407,1.85348 -0.252,3.67779 a 9.76758,9.76758 0 0 1 2.77869003,-0.2027 12.33286,12.33286 0 0 1 3.7476196,0.93689 22.58927,22.58927 0 0 1 3.5383901,1.89643 15.458,15.458 0 0 0 -3.7068101,-4.57026 z"
     id="path2" />
  <path
     class="cls-1"
     d="m 6.1989149,56.91846 a 3.82145,3.82145 0 0 0 3.74365,-3.74359 3.82066,3.82066 0 0 0 -3.74365,3.74359 z"
     id="path3" />
  <path
     class="cls-1"
     d="m 13.866625,61.22107 a 5.09472,5.09472 0 0 0 0,-7.059 5.09474,5.09474 0 0 0 0,7.059 z"
     id="path4" />
  <path
     class="cls-1"
     d="m 51.194505,27.01422 c 0.01252,-0.05859 0.02387,-0.11725 0.03351,-0.17694 0.01514,-0.09845 0.022,-0.21155 0.02942,-0.32355 0.0055,-0.08075 0.02185,-0.15814 0.02185,-0.24072 a 2.49981,2.49981 0 0 0 -2.54419,-2.574 c -1.0896,-0.0053 -2.49206,0.80584 -4.39612,2.39483 -0.4931,0.41181 -4.01922,3.25507 -4.18212,3.38788 0.1629,0.13257 3.689,2.97565 4.18212,3.38764 1.90406,1.589 3.30652,2.40008 4.39612,2.39489 a 2.5,2.5 0 0 0 2.54419,-2.574 c 0,-0.08258 -0.01636,-0.16 -0.02185,-0.24079 -0.0074,-0.112 -0.01428,-0.22509 -0.02942,-0.32348 -0.0096,-0.05951 -0.021,-0.11835 -0.03351,-0.17719 -0.0664,-0.329 -0.15808,-0.61609 -0.21728,-0.97015 a 10.13632,10.13632 0 0 1 0,-2.994 c 0.0592,-0.35415 0.15088,-0.6415 0.21728,-0.97042 z"
     id="path5" />
  <path
     class="cls-1"
     d="m 21.534355,56.91846 a 3.82112,3.82112 0 0 0 -3.74365,-3.74359 3.82145,3.82145 0 0 0 3.74365,3.74359 z"
     id="path6" />
  <path
     class="cls-1"
     d="m 36.095815,15.39527 c -0.06573,-0.014 -0.13147,-0.0268 -0.19849,-0.03754 -0.11041,-0.017 -0.23736,-0.02478 -0.363,-0.033 -0.09064,-0.0062 -0.17743,-0.02454 -0.27008,-0.02454 a 2.80473,2.80473 0 0 0 -2.88794,2.85437 c -0.0058,1.22248 0.90417,2.796 2.68689,4.93207 0.462,0.55328 3.65143,4.509 3.80041,4.69177 0.14874,-0.1828 3.33893,-4.13849 3.80121,-4.69177 1.62567,-1.948 2.51679,-3.4245 2.6582,-4.59723 q -1.86181,-1.59449 -3.75048,-3.0802 c -0.344,0.07318 -0.65387,0.16718 -1.02906,0.22992 a 11.37244,11.37244 0 0 1 -3.359,0 c -0.39719,-0.06649 -0.71956,-0.16933 -1.08866,-0.24385 z"
     id="path7" />
  <path
     class="cls-1"
     d="m 28.992665,23.69873 a 2.5,2.5 0 0 0 -2.54419,2.574 c 0,0.08258 0.01642,0.16 0.02191,0.24072 0.0073,0.112 0.01428,0.22516 0.02942,0.32355 0.0096,0.05951 0.021,0.11834 0.03351,0.17718 0.06635,0.329 0.15808,0.61609 0.21729,0.97016 a 10.13715,10.13715 0 0 1 0,2.99395 c -0.05921,0.35413 -0.15094,0.64142 -0.21729,0.9704 -0.01251,0.0586 -0.02393,0.11719 -0.03351,0.17694 -0.01514,0.09845 -0.02209,0.21155 -0.02942,0.32355 -0.0055,0.08075 -0.02191,0.15814 -0.02191,0.24072 a 2.49986,2.49986 0 0 0 2.54419,2.574 c 1.08966,0.0053 2.49213,-0.80591 4.39612,-2.39484 0.4931,-0.4118 4.0191,-3.25464 4.18194,-3.38745 -0.16284,-0.13257 -3.68884,-2.97607 -4.18194,-3.38812 -1.90399,-1.58885 -3.30646,-2.39995 -4.39612,-2.39476 z"
     id="path8" />
  <path
     class="cls-1"
     d="m 25.000235,45.75372 a 9.4695,9.4695 0 0 1 3.76861,0.47822 9.70676,9.70676 0 0 1 2.54743,1.18762 3.89979,3.89979 0 0 0 -0.58789,-3.31714 4.77212,4.77212 0 0 0 -4.1687,-1.90784 7.42894,7.42894 0 0 0 -2.68128,0.43256 10.37613,10.37613 0 0 0 -2.45739,1.38959 15.45787,15.45787 0 0 0 -3.70673,4.57031 22.586,22.586 0 0 1 3.53833,-1.89643 12.33286,12.33286 0 0 1 3.74762,-0.93689 z"
     id="path9" />
  <path
     class="cls-1"
     d="m 53.735525,26.46948 c -0.08087,0.3877 -0.18762,0.733 -0.258,1.154 a 9.41889,9.41889 0 0 0 -0.13671,1.85778 v 4.3e-4 a 9.41729,9.41729 0 0 0 0.13671,1.85773 c 0.07294,0.43646 0.18573,0.78943 0.2674,1.19482 0.0155,0.07245 0.02954,0.14435 0.04138,0.21839 0.01856,0.12054 0.027,0.25946 0.03613,0.397 0.0067,0.1 0.027,0.19507 0.027,0.29663 a 3.78626,3.78626 0 0 1 -3.57715,3.96552 c -0.7077,0 -1.69061,0.059 -4.08441,-1.8252 -0.63013,-0.49615 -6.02753,-6.1015 -6.03076,-6.10492 h -2.4e-4 l 1.2e-4,-4.3e-4 h 1.2e-4 c 0.0032,-0.0032 5.40063,-5.60876 6.03076,-6.10473 a 9.266,9.266 0 0 1 2.75879,-1.64337 q -1.11587,-1.04112 -2.27475,-2.06518 c -0.25879,0.40271 -0.55951,0.83746 -0.95856,1.34436 -0.55664,0.707 -6.84539,6.76245 -6.84924,6.76605 v 2.5e-4 l -4.9e-4,-1.3e-4 v -1.2e-4 c -0.0035,-0.0036 -6.2926,-6.059 -6.849,-6.766 -2.11267,-2.684 -2.04791,-3.78674 -2.04791,-4.58081 v -0.0016 a 4.24782,4.24782 0 0 1 4.44843,-4.0133 c 0.114,0 0.22113,0.02264 0.33282,0.03021 0.15454,0.01019 0.31067,0.01972 0.44647,0.04065 0.08252,0.01324 0.16345,0.029 0.24445,0.04626 0.45434,0.09168 0.85113,0.21827 1.34051,0.30011 a 10.86625,10.86625 0 0 0 1.58881,0.15326 A 91.43192,91.43192 0 0 0 13.938035,0 C 8.8868349,8.16669 4.7962553,18.70331 2.2086053,30.28412 a 92.34273,92.34273 0 0 0 -1.64679003,9.98035 8.2547,8.2547 0 0 1 1.05585003,-0.032 8.116,8.116 0 0 1 5.7495096,2.95832 13.12072,13.12072 0 0 1 2.7946801,5.39624 19.88848,19.88848 0 0 0 -3.6391601,-1.03565 15.94422,15.94422 0 0 0 -3.6494096,-0.14123 8.50583,8.50583 0 0 0 -2.84540003,0.74121 90.39641,90.39641 0 0 0 0.47223,11.74079 105.66491,105.66491 0 0 0 12.15764973,4.50153 7.06166,7.06166 0 0 1 -1.62585,-4.56232 6.85333,6.85333 0 0 1 2.83471,-5.66931 6.85331,6.85331 0 0 1 2.83472,5.66931 6.966,6.966 0 0 1 -2.15485,5.11615 97.63012,97.63012 0 0 0 9.77265,2.18044 105.94027,105.94027 0 0 0 25.42749,1.33618 108.607,108.607 0 0 0 9.04272,-25.53253 c 0.65747,-2.94195 1.19239,-5.85638 1.61035,-8.72589 -2.02429,-2.60427 -4.25036,-5.1935 -6.66418,-7.73623 z m -46.8840001,5.819 A 17.13233,17.13233 0 0 1 13.938195,18.11527 17.13279,17.13279 0 0 1 21.024615,32.28848 17.13271,17.13271 0 0 1 13.938195,46.4617 17.13226,17.13226 0 0 1 6.8514949,32.28851 Z m 1.58761,25.39627 a 5.13977,5.13977 0 0 1 -4.5099996,1.5033 5.31512,5.31512 0 0 1 6.0134296,-6.01318 5.14047,5.14047 0 0 1 -1.50343,4.50988 z m 5.4952401,-5.64727 a 6.25175,6.25175 0 0 1 -4.2519501,-1.4173 6.25147,6.25147 0 0 1 4.2519501,-1.41736 6.2515,6.2515 0 0 1 4.252,1.41736 6.25178,6.25178 0 0 1 -4.252,1.4173 z m 9.86954,7.15057 a 5.31508,5.31508 0 0 1 -6.01318,-6.01318 5.31482,5.31482 0 0 1 6.01318,6.01318 z m 9.3584,-10.11829 a 12.08574,12.08574 0 0 1 -0.82813,1.74048 l -1.20593,-0.891 a 15.56955,15.56955 0 0 0 -2.84613,-1.57983 8.98311,8.98311 0 0 0 -3.2793,-0.92926 15.9442,15.9442 0 0 0 -3.64941,0.14123 19.88925,19.88925 0 0 0 -3.6391,1.03565 13.12131,13.12131 0 0 1 2.7946,-5.39623 8.116,8.116 0 0 1 5.74951,-2.95832 8.32954,8.32954 0 0 1 3.37109,0.56678 6.70075,6.70075 0 0 1 2.81958,2.19055 6.44607,6.44607 0 0 1 0.71319,6.07995 z m 4.40857,-19.58807 h -1.3e-4 c -0.0032,0.0032 -5.40063,5.60877 -6.03082,6.10474 -2.39227,1.88305 -3.37524,1.82538 -4.083,1.82538 h -0.0013 a 3.78619,3.78619 0 0 1 -3.57715,-3.965 c 0,-0.10162 0.02021,-0.19708 0.02692,-0.29663 0.009,-0.13782 0.01752,-0.27692 0.03619,-0.398 0.01184,-0.07349 0.02588,-0.14569 0.04126,-0.21784 0.08173,-0.405 0.19458,-0.75866 0.26752,-1.19482 a 9.42921,9.42921 0 0 0 0.13672,-1.85779 v -4.3e-4 a 9.4272,9.4272 0 0 0 -0.13672,-1.85772 c -0.07294,-0.43647 -0.18573,-0.78943 -0.2674,-1.19489 -0.0155,-0.07239 -0.02954,-0.14435 -0.04138,-0.21832 -0.01861,-0.12061 -0.0271,-0.25952 -0.03613,-0.397 -0.0067,-0.1 -0.027,-0.19506 -0.027,-0.29663 a 3.78618,3.78618 0 0 1 3.57715,-3.96551 c 0.7077,0 1.69061,-0.059 4.08435,1.82519 0.63019,0.49616 6.02759,6.10151 6.03082,6.10492 h 1.3e-4 z m 1.37103,13.52926 a 14.16076,14.16076 0 0 1 -1.31348,-6.56739 14.16065,14.16065 0 0 1 1.31348,-6.56734 14.1615,14.1615 0 0 1 1.31342,6.56732 14.16161,14.16161 0 0 1 -1.31342,6.56741 z"
     id="path10" />
</svg>
